<svg width="18" height="18" viewBox="0 0 18 18" fill="none" xmlns="http://www.w3.org/2000/svg">
<path d="M16.25 7.125H10.625V1.5C10.625 0.835938 10.0391 0.25 9.375 0.25H8.125C7.42188 0.25 6.875 0.835938 6.875 1.5V7.125H1.25C0.546875 7.125 0 7.71094 0 8.375V9.625C0 10.3281 0.546875 10.875 1.25 10.875H6.875V16.5C6.875 17.2031 7.42188 17.75 8.125 17.75H9.375C10.0391 17.75 10.625 17.2031 10.625 16.5V10.875H16.25C16.9141 10.875 17.5 10.3281 17.5 9.625V8.375C17.5 7.71094 16.9141 7.125 16.25 7.125Z" fill="white"/>
</svg>
