<svg width="20" height="18" viewBox="0 0 20 18" xmlns="http://www.w3.org/2000/svg">
  <path d="M20 4.625C20 3.60938 19.1406 2.75 18.125 2.75H14.6875L14.1797 1.5C13.9062 0.757812 13.2031 0.25 12.4219 0.25H7.53906C6.75781 0.25 6.05469 0.757812 5.78125 1.5L5.3125 2.75H1.875C0.820312 2.75 0 3.60938 0 4.625V15.875C0 16.9297 0.820312 17.75 1.875 17.75H18.125C19.1406 17.75 20 16.9297 20 15.875V4.625ZM14.6875 10.25C14.6875 12.8672 12.5781 14.9375 10 14.9375C7.38281 14.9375 5.3125 12.8672 5.3125 10.25C5.3125 7.67188 7.38281 5.5625 10 5.5625C12.5781 5.5625 14.6875 7.67188 14.6875 10.25ZM13.4375 10.25C13.4375 8.375 11.875 6.8125 10 6.8125C8.08594 6.8125 6.5625 8.375 6.5625 10.25C6.5625 12.1641 8.08594 13.6875 10 13.6875C11.875 13.6875 13.4375 12.1641 13.4375 10.25Z" />
</svg>