<svg t="1660707478318" class="icon" viewBox="0 0 1024 1024" version="1.1" xmlns="http://www.w3.org/2000/svg" p-id="3911" data-darkreader-inline-fill="" width="200" height="200">
  <path d="M720 319H600V177c0-35.2-28.8-64-64-64h-48c-35.2 0-64 28.8-64 64v142H304c-35.2 0-64 28.8-64 64v108c0 2.2 1.8 4 4 4h536c2.2 0 4-1.8 4-4V383c0-35.2-28.8-64-64-64zM780 511H244c-2.2 0-4 1.8-4 4v378c0 8.8 7.2 16 16 16h82.4c2.2 0 4-1.8 4-4V753c0-2.2 1.8-4 4-4h24c2.2 0 4 1.8 4 4v152c0 2.2 1.8 4 4 4h62.4c2.2 0 4-1.8 4-4V753c0-2.2 1.8-4 4-4h24c2.2 0 4 1.8 4 4v152c0 2.2 1.8 4 4 4h62.4c2.2 0 4-1.8 4-4V753c0-2.2 1.8-4 4-4h24c2.2 0 4 1.8 4 4v152c0 2.2 1.8 4 4 4h62.4c2.2 0 4-1.8 4-4V753c0-2.2 1.8-4 4-4h24c2.2 0 4 1.8 4 4v152c0 2.2 1.8 4 4 4H768c8.8 0 16-7.2 16-16V515c0-2.2-1.8-4-4-4z" p-id="3912"></path>
</svg>